<?xml version="1.0" encoding="iso-8859-1"?>
<!-- Generator: Adobe Illustrator 19.0.0, SVG Export Plug-In . SVG Version: 6.00 Build 0)  -->
<svg xmlns="http://www.w3.org/2000/svg" xmlns:xlink="http://www.w3.org/1999/xlink" version="1.1" id="Layer_1" x="0px" y="0px" viewBox="0 0 330.079 330.079" style="enable-background:new 0 0 330.079 330.079;" xml:space="preserve" width="512px" height="512px">
<g id="XMLID_91_">
	<path id="XMLID_92_" d="M293.703,43.654c3.17-7.654-0.465-16.428-8.118-19.599C247.047,8.093,206.452,0,164.922,0   C123.549,0,83.032,8.094,44.495,24.057c-7.653,3.17-11.288,11.944-8.118,19.598l114.805,277.164   c2.322,5.605,7.791,9.26,13.858,9.26s11.536-3.655,13.858-9.26l93.198-225.001c0.018-0.043,0.035-0.087,0.054-0.13L293.703,43.654z    M164.922,30c32.575,0,64.521,5.507,95.176,16.389l-10.46,25.252C193.963,56.033,136.001,56.03,80.435,71.629L69.98,46.388   C100.615,35.507,132.485,30,164.922,30z M165.04,275.882l-21.164-51.096c11.985-1.846,21.164-12.205,21.164-24.707   c0-13.807-11.193-25-25-25c-5.52,0-10.62,1.793-14.756,4.823L92.005,99.562c48.027-12.833,97.938-12.829,146.063,0.014   l-19.472,47.008c-2.669-0.973-5.551-1.504-8.557-1.504c-13.807,0-25,11.193-25,25c0,10.031,5.912,18.678,14.439,22.66   L165.04,275.882z" fill="#DA3D26"/>
	<circle id="XMLID_104_" cx="155.04" cy="130.079" r="25" fill="#DA3D26"/>
</g>
</svg>
